<svg width="32" height="32" viewBox="0 0 32 32" fill="none" xmlns="http://www.w3.org/2000/svg">
  <!-- Фон -->
  <rect width="32" height="32" rx="4" fill="#3b82f6"/>

  <!-- Книга -->
  <path d="M8 10C8 8.89543 8.89543 8 10 8H18C19.1046 8 20 8.89543 20 10V22C20 23.1046 19.1046 24 18 24H10C8.89543 24 8 23.1046 8 22V10Z" fill="white"/>

  <!-- Обложка книги -->
  <rect x="10" y="8" width="8" height="16" rx="1" fill="#f8fafc"/>
  <rect x="11" y="9" width="6" height="14" fill="white"/>

  <!-- Корешок книги -->
  <rect x="18" y="8" width="1" height="16" fill="#e2e8f0"/>

  <!-- Страницы -->
  <line x1="12" y1="11" x2="16" y2="11" stroke="#cbd5e1" stroke-width="0.5"/>
  <line x1="12" y1="13" x2="16" y2="13" stroke="#cbd5e1" stroke-width="0.5"/>
  <line x1="12" y1="15" x2="15" y2="15" stroke="#cbd5e1" stroke-width="0.5"/>
  <line x1="12" y1="17" x2="16" y2="17" stroke="#cbd5e1" stroke-width="0.5"/>
  <line x1="12" y1="19" x2="14" y2="19" stroke="#cbd5e1" stroke-width="0.5"/>
  <line x1="12" y1="21" x2="16" y2="21" stroke="#cbd5e1" stroke-width="0.5"/>

  <!-- Закладка -->
  <path d="M14 10L14 16L15.5 14.5L17 16V10H14Z" fill="#ef4444"/>
</svg>